<?xml version="1.0" encoding="iso-8859-1"?>
<!-- Generator: Adobe Illustrator 19.0.0, SVG Export Plug-In . SVG Version: 6.00 Build 0)  -->
<svg version="1.1" id="Layer_1" xmlns="http://www.w3.org/2000/svg" xmlns:xlink="http://www.w3.org/1999/xlink" x="0px" y="0px"
	 viewBox="0 0 512 512" style="enable-background:new 0 0 512 512;" xml:space="preserve">
<g>
	<path style="fill:#82D78C;" d="M345.727,30.069c-27.279-10.56-57.954,2.995-68.514,30.274L258.214,262.53
		C279.921,234.666,366.769,122.431,376,98.583C386.56,71.304,373.007,40.628,345.727,30.069z"/>
	<path style="fill:#82D78C;" d="M166.273,30.069c-27.279,10.56-40.833,41.235-30.274,68.514
		c9.231,23.848,96.079,136.083,117.786,163.947L234.788,60.342C224.228,33.063,193.553,19.509,166.273,30.069z"/>
</g>
<path style="fill:#A0EB87;" d="M308.966,52.966C308.966,82.218,256,256,256,256S203.035,82.218,203.035,52.966S226.748,0,256,0
	C285.253,0,308.966,23.713,308.966,52.966z"/>
<path style="fill:#FF647D;" d="M344.276,370.759c0-48.996-39.917-88.669-89.005-88.273c-44.159,0.356-81.756,35.053-86.985,78.903
	c-6.061,50.833,38.262,84.483,66.137,107.656c8.084,6.718,12.749,16.654,12.749,27.165v6.963c0,4.879,3.953,8.828,8.828,8.828
	s8.828-3.948,8.828-8.828v-6.964c0-10.517,4.682-20.459,12.769-27.181C303.723,447.31,344.276,416.392,344.276,370.759z"/>
<path style="fill:#82D78C;" d="M279.897,90.862c-3.448-3.448-9.035-3.448-12.483,0l-2.585,2.586V79.448
	c0-4.879-3.953-8.828-8.828-8.828s-8.828,3.948-8.828,8.828v49.311l-2.586-2.586c-3.448-3.448-9.035-3.448-12.483,0
	c-3.448,3.448-3.448,9.035,0,12.483l15.07,15.069v128.758c0,4.879,3.953,8.828,8.828,8.828s8.828-3.948,8.828-8.828V118.414
	l15.069-15.069C283.345,99.896,283.345,94.311,279.897,90.862z"/>
<path style="fill:#D2556E;" d="M221.253,361.388c4.184-35.085,29.112-64.257,61.522-74.721c-8.67-2.759-17.901-4.259-27.503-4.182
	c-44.159,0.356-81.756,35.053-86.985,78.903c-6.061,50.833,38.262,84.483,66.137,107.656c8.083,6.719,12.749,16.655,12.749,27.166
	v6.963c0,4.879,3.953,8.828,8.828,8.828s8.828-3.948,8.828-8.828v-6.964c0-10.517,4.682-20.459,12.769-27.181
	c1.579-1.312,3.214-2.661,4.886-4.042C254.632,441.986,215.536,409.335,221.253,361.388z"/>
<g>
	<path style="fill:#FF788C;" d="M273.655,370.759h-26.483c-4.875,0-8.828-3.953-8.828-8.828l0,0c0-4.875,3.953-8.828,8.828-8.828
		h26.483c4.875,0,8.828,3.953,8.828,8.828l0,0C282.483,366.806,278.53,370.759,273.655,370.759z"/>
	<path style="fill:#FF788C;" d="M291.311,406.069H256c-4.875,0-8.828-3.953-8.828-8.828l0,0c0-4.875,3.953-8.828,8.828-8.828h35.31
		c4.875,0,8.828,3.953,8.828,8.828l0,0C300.138,402.116,296.186,406.069,291.311,406.069z"/>
	<path style="fill:#FF788C;" d="M282.483,441.379h-8.828c-4.875,0-8.828-3.953-8.828-8.828l0,0c0-4.875,3.953-8.828,8.828-8.828
		h8.828c4.875,0,8.828,3.953,8.828,8.828l0,0C291.311,437.427,287.358,441.379,282.483,441.379z"/>
	<path style="fill:#FF788C;" d="M291.311,335.448h-17.655c-4.875,0-8.828-3.953-8.828-8.828l0,0c0-4.875,3.953-8.828,8.828-8.828
		h17.655c4.875,0,8.828,3.953,8.828,8.828l0,0C300.138,331.496,296.186,335.448,291.311,335.448z"/>
</g>
<g>
	<path style="fill:#FF647D;" d="M238.345,335.448H220.69c-4.875,0-8.828-3.953-8.828-8.828l0,0c0-4.875,3.953-8.828,8.828-8.828
		h17.655c4.875,0,8.828,3.953,8.828,8.828l0,0C247.173,331.496,243.22,335.448,238.345,335.448z"/>
	<path style="fill:#FF647D;" d="M229.518,406.069h-17.655c-4.875,0-8.828-3.953-8.828-8.828l0,0c0-4.875,3.953-8.828,8.828-8.828
		h17.655c4.875,0,8.828,3.953,8.828,8.828l0,0C238.345,402.116,234.393,406.069,229.518,406.069z"/>
</g>
<path style="fill:#FF788C;" d="M317.793,370.759h-8.828c-4.875,0-8.828-3.953-8.828-8.828l0,0c0-4.875,3.953-8.828,8.828-8.828
	h8.828c4.875,0,8.828,3.953,8.828,8.828l0,0C326.621,366.806,322.668,370.759,317.793,370.759z"/>
<g>
</g>
<g>
</g>
<g>
</g>
<g>
</g>
<g>
</g>
<g>
</g>
<g>
</g>
<g>
</g>
<g>
</g>
<g>
</g>
<g>
</g>
<g>
</g>
<g>
</g>
<g>
</g>
<g>
</g>
</svg>
